<svg xmlns="http://www.w3.org/2000/svg" viewBox="0 0 99.87 12.27"><defs><style>.cls-1{fill:#fcfaf2;}</style></defs><title>株式会社前田組 電話番号</title><g id="PhoneNumber" data-name="PhoneNumber"><g id="_100x100" data-name="100x100"><path class="cls-1" d="M5.58,9.09c0,2.21-1.34,3.18-2.8,3.18S0,11.3,0,9.09V3.18C0,1,1.32,0,2.78,0s2.8,1,2.8,3.18ZM2.78,1.36c-.78,0-1.3.53-1.3,1.82V9.09c0,1.29.52,1.82,1.3,1.82s1.3-.53,1.3-1.82V3.18C4.08,1.89,3.56,1.36,2.78,1.36Z"/><path class="cls-1" d="M11.58,6.93a1.33,1.33,0,0,1-.7.16c-1.49,0-2.45-1.34-2.45-3.51S9.56,0,11.23,0,14,1.32,14,3.39a9.94,9.94,0,0,1-.66,2.9l-2,5.84H9.75Zm-.35-5.57c-.85,0-1.32.86-1.32,2.22s.47,2.22,1.32,2.22,1.3-.88,1.3-2.22S12.08,1.36,11.23,1.36Z"/><path class="cls-1" d="M21.05.14,17.94,8.83h2.38V5.3h1.5V8.83h.83v1.35h-.83v2h-1.5v-2h-4.1V9.09L19.58.14Z"/><path class="cls-1" d="M26.39,5.91A3.1,3.1,0,0,1,25.1,3.3c0-2.17,1.36-3.3,2.82-3.3s2.82,1.13,2.82,3.3a3.15,3.15,0,0,1-1.29,2.61,3.28,3.28,0,0,1,1.42,2.85c0,2.29-1.44,3.51-2.95,3.51s-3-1.22-3-3.51A3.38,3.38,0,0,1,26.39,5.91Zm1.53,5c.89,0,1.58-.79,1.58-2.15s-.87-2.14-1.58-2.14-1.56.64-1.56,2.14S27,10.91,27.92,10.91Zm0-5.63c.8,0,1.44-.71,1.44-2s-.64-1.94-1.44-1.94-1.46.69-1.46,1.94S27.1,5.28,27.92,5.28Z"/><path class="cls-1" d="M36,6.48h3.66V7.73H36Z"/><path class="cls-1" d="M48.48,12.13h-5.7V10.88L46,6a5.11,5.11,0,0,0,1-2.85c0-1.19-.48-1.81-1.3-1.81S44.4,2,44.37,3.21H42.94A2.91,2.91,0,0,1,45.74,0c1.63,0,2.78,1.23,2.78,3.15a6.67,6.67,0,0,1-1.34,3.63l-2.54,4h3.84Z"/><path class="cls-1" d="M56.86,12.13h-5.7V10.88L54.36,6a5.11,5.11,0,0,0,1-2.85c0-1.19-.48-1.81-1.3-1.81S52.78,2,52.75,3.21H51.32A2.91,2.91,0,0,1,54.12,0c1.63,0,2.78,1.23,2.78,3.15a6.67,6.67,0,0,1-1.34,3.63l-2.54,4h3.84Z"/><path class="cls-1" d="M62.12,6.48h3.66V7.73H62.12Z"/><path class="cls-1" d="M74.59,9.09c0,2.21-1.33,3.18-2.79,3.18S69,11.3,69,9.09V3.18C69,1,70.34,0,71.8,0s2.79,1,2.79,3.18ZM71.8,1.36c-.79,0-1.31.53-1.31,1.82V9.09c0,1.29.52,1.82,1.31,1.82s1.3-.53,1.3-1.82V3.18C73.1,1.89,72.58,1.36,71.8,1.36Z"/><path class="cls-1" d="M79.78,5.33a1.41,1.41,0,0,1,.69-.15c1.5,0,2.45,1.34,2.45,3.51s-1.13,3.58-2.8,3.58S77.33,11,77.33,8.83A9.67,9.67,0,0,1,78,6L80,.14H81.6Zm.34,5.58c.86,0,1.33-.87,1.33-2.22S81,6.46,80.12,6.46s-1.3.89-1.3,2.23S79.27,10.91,80.12,10.91Z"/><path class="cls-1" d="M87.69,5.27h.62c1.17,0,1.55-.79,1.55-2.09,0-1-.43-1.84-1.29-1.84s-1.28.59-1.33,1.72H85.79A2.79,2.79,0,0,1,88.57,0c1.62,0,2.78,1.18,2.78,3.18A2.88,2.88,0,0,1,90,5.91a3,3,0,0,1,1.51,2.95c0,2-1.11,3.41-2.83,3.41s-2.85-1.22-3-3.15h1.46c.11,1.06.49,1.79,1.46,1.79S90,10.12,90,8.86c0-1.42-.5-2.24-1.69-2.24h-.62Z"/><path class="cls-1" d="M96.07,5.27h.62c1.17,0,1.55-.79,1.55-2.09,0-1-.44-1.84-1.29-1.84s-1.28.59-1.34,1.72H94.17A2.79,2.79,0,0,1,97,0c1.62,0,2.78,1.18,2.78,3.18a2.88,2.88,0,0,1-1.37,2.73,3,3,0,0,1,1.51,2.95c0,2-1.11,3.41-2.83,3.41s-2.85-1.22-3-3.15h1.46c.1,1.06.49,1.79,1.46,1.79s1.41-.79,1.41-2.05c0-1.42-.51-2.24-1.69-2.24h-.62Z"/></g></g></svg>
