<svg xmlns="http://www.w3.org/2000/svg" viewBox="0 0 249.52 302.65"><defs><style>.cls-1{fill:#b69b74;}</style></defs><title>アセット 5</title><g id="レイヤー_2" data-name="レイヤー 2"><g id="Single-M"><g id="sizes"><path class="cls-1" d="M216.69,24.25a33,33,0,0,0-16.39,4.38L115,77.82V25.51h0a23.76,23.76,0,0,0-.23-3,25.18,25.18,0,0,0-1-4.59A25.92,25.92,0,0,0,82.42.87a25.37,25.37,0,0,0-5.66,2.21L35.32,26.51l-1.8,1A65.46,65.46,0,0,0,0,84.9a41.34,41.34,0,0,0,66,33.26v128.7A15.82,15.82,0,0,0,70.6,258.2c.41.43,44.41,44.45,44.41,44.45V128.7l13.93-8.25h0l1.23-.72a7.12,7.12,0,0,1,2.89-1,4.16,4.16,0,0,1,4.16,4.16v2.47h0V229.53l0,0A16.11,16.11,0,0,0,142.12,241v0L178,277V91.37L194,81.92a3.79,3.79,0,0,1,2.1-.56,4.16,4.16,0,0,1,4.16,4.16h0v110a16.16,16.16,0,0,0,4.64,11.35l0,.09,44.64,44.33V57.13C249.52,36.84,234.85,24.25,216.69,24.25ZM56.75,110.8A25.77,25.77,0,0,1,33.12,95.1a9.94,9.94,0,0,1-.71-4.43A9.78,9.78,0,0,1,37,83L66,68.52v40.65A25.7,25.7,0,0,1,56.75,110.8Z"/></g></g></g></svg>