<svg xmlns="http://www.w3.org/2000/svg" viewBox="0 0 203.57 203.57"><defs><style>.cls-1{fill:#0c243f;}</style></defs><title>アセット 1</title><g id="レイヤー_2" data-name="レイヤー 2"><g id="Layer_4" data-name="Layer 4"><g id="Layer_10" data-name="Layer 10"><path class="cls-1" d="M203.57,160.77a59.69,59.69,0,0,1-1.44,10.2,60.92,60.92,0,0,1-3,9.9c-3,7.23-17.64,15.33-17.64,15.33a62.54,62.54,0,0,1-26.89,7.37,62.77,62.77,0,0,1-7.59-.51,74,74,0,0,1-8.32-1.8c-4.62-1.3-6.86-2.1-6.86-2.1-2.24-.79-8-3-8-3-5.78-2.17-7.08-2.61-7.08-2.61a146.55,146.55,0,0,1-25.3-12c-18.51-11.42-38.25-31.15-38.25-31.15A236.22,236.22,0,0,1,22,112.2C15,101.06,10,86.89,10,86.89c-.44-1.3-2.61-7.08-2.61-7.08-2.17-5.78-3-8-3-8-.8-2.24-2.1-6.86-2.1-6.86A68.1,68.1,0,0,1,.51,56.6,63.83,63.83,0,0,1,0,49c0-13.3,7.37-26.89,7.37-26.89C15.47,7.52,22.7,4.48,22.7,4.48a70.92,70.92,0,0,1,9.9-3A50.36,50.36,0,0,1,42.8,0a8.44,8.44,0,0,1,3,.43c2.6.87,7.67,11,7.67,11,1.59,2.75,4.33,7.81,4.33,7.81,2.75,5.06,5.06,9.18,5.06,9.18,2.32,4.12,4.49,7.74,4.49,7.74.43.57,2.53,3.61,2.53,3.61A43.63,43.63,0,0,1,73,44.89,10.48,10.48,0,0,1,74,49c0,2.89-4.12,7.23-4.12,7.23a81.14,81.14,0,0,1-9,7.95,99.61,99.61,0,0,0-9,7.67c-4.12,4-4.12,6.65-4.12,6.65a12.12,12.12,0,0,0,.72,3.25,31.4,31.4,0,0,0,1.23,3c.5,1,2,3.47,2,3.47,1.52,2.46,1.67,2.75,1.67,2.75a170.1,170.1,0,0,0,25.15,34c14.17,14.17,34,25.16,34,25.16.29.14,2.75,1.66,2.75,1.66,2.45,1.52,3.47,2,3.47,2,1,.51,3,1.23,3,1.23a10.39,10.39,0,0,0,3.25.72c2.61,0,6.65-4.12,6.65-4.12a101.1,101.1,0,0,0,7.67-9,80.29,80.29,0,0,1,8-9c4.34-4.12,7.23-4.12,7.23-4.12a11.09,11.09,0,0,1,4.12,1,50.07,50.07,0,0,1,5.13,3.11c3,2.09,3.62,2.53,3.62,2.53,3.61,2.16,7.73,4.48,7.73,4.48,4.12,2.31,9.18,5.06,9.18,5.06,5.06,2.75,7.81,4.34,7.81,4.34,10.12,5.06,11,7.66,11,7.66A10.32,10.32,0,0,1,203.57,160.77Z"/></g></g></g></svg>